<svg xmlns="http://www.w3.org/2000/svg" width="24" height="24" viewBox="0 0 24 24">
  <!-- Lucide 1.42.0; rounded 2 px strokes expanded for GTK 4.14+. See LICENSE. -->
  <path fill="#000000" d="M3.7071 15.2929 6 17.5858V4Q6 3.9015 6.0192 3.8049Q6.0384 3.7083 6.0761 3.6173Q6.1138 3.5263 6.1685 3.4444Q6.2232 3.3625 6.2929 3.2929Q6.3625 3.2232 6.4444 3.1685Q6.5263 3.1138 6.6173 3.0761Q6.7083 3.0384 6.8049 3.0192Q6.9015 3 7 3Q7.0985 3 7.1951 3.0192Q7.2917 3.0384 7.3827 3.0761Q7.4737 3.1138 7.5556 3.1685Q7.6375 3.2232 7.7071 3.2929Q7.7768 3.3625 7.8315 3.4444Q7.8862 3.5263 7.9239 3.6173Q7.9616 3.7083 7.9808 3.8049Q8 3.9015 8 4V17.5858L10.2929 15.2929Q10.3625 15.2232 10.4444 15.1685Q10.5263 15.1138 10.6173 15.0761Q10.7083 15.0384 10.8049 15.0192Q10.9015 15 11 15Q11.0985 15 11.1951 15.0192Q11.2917 15.0384 11.3827 15.0761Q11.4737 15.1138 11.5556 15.1685Q11.6375 15.2232 11.7071 15.2929Q11.7768 15.3625 11.8315 15.4444Q11.8862 15.5263 11.9239 15.6173Q11.9616 15.7083 11.9808 15.8049Q12 15.9015 12 16Q12 16.0985 11.9808 16.1951Q11.9616 16.2917 11.9239 16.3827Q11.8862 16.4737 11.8315 16.5556Q11.7768 16.6375 11.7071 16.7071L7.7071 20.7071Q7.6375 20.7767 7.5556 20.8315Q7.4737 20.8862 7.3827 20.9239Q7.2917 20.9616 7.1951 20.9808Q7.0985 21 7 21Q6.9015 21 6.8049 20.9808Q6.7083 20.9616 6.6173 20.9239Q6.5377 20.8909 6.465 20.8449Q6.4547 20.8383 6.4444 20.8315Q6.3728 20.7836 6.3105 20.7243Q6.3016 20.7158 6.2929 20.7071L2.2929 16.7071Q2.2232 16.6375 2.1685 16.5556Q2.1138 16.4737 2.0761 16.3827Q2.0384 16.2917 2.0192 16.1951Q2 16.0985 2 16Q2 15.9015 2.0192 15.8049Q2.0384 15.7083 2.0761 15.6173Q2.1138 15.5263 2.1685 15.4444Q2.2232 15.3625 2.2929 15.2929Q2.3625 15.2232 2.4444 15.1685Q2.5263 15.1138 2.6173 15.0761Q2.7083 15.0384 2.8049 15.0192Q2.9015 15 3 15Q3.0985 15 3.1951 15.0192Q3.2917 15.0384 3.3827 15.0761Q3.4737 15.1138 3.5556 15.1685Q3.6375 15.2232 3.7071 15.2929ZM14 20V16.5Q14 13 17.5 13Q21 13 21 16.5V20Q21 20.0985 20.9808 20.1951Q20.9616 20.2917 20.9239 20.3827Q20.8862 20.4737 20.8315 20.5556Q20.7767 20.6375 20.7071 20.7071Q20.6375 20.7767 20.5556 20.8315Q20.4737 20.8862 20.3827 20.9239Q20.2917 20.9616 20.1951 20.9808Q20.0985 21 20 21Q19.9015 21 19.8049 20.9808Q19.7083 20.9616 19.6173 20.9239Q19.5263 20.8862 19.4444 20.8315Q19.3625 20.7767 19.2929 20.7071Q19.2232 20.6375 19.1685 20.5556Q19.1138 20.4737 19.0761 20.3827Q19.0384 20.2917 19.0192 20.1951Q19 20.0985 19 20V19H16V20Q16 20.0985 15.9808 20.1951Q15.9616 20.2917 15.9239 20.3827Q15.8862 20.4737 15.8315 20.5556Q15.7767 20.6375 15.7071 20.7071Q15.6375 20.7767 15.5556 20.8315Q15.4737 20.8862 15.3827 20.9239Q15.2917 20.9616 15.1951 20.9808Q15.0985 21 15 21Q14.9015 21 14.8049 20.9808Q14.7083 20.9616 14.6173 20.9239Q14.5263 20.8862 14.4444 20.8315Q14.3625 20.7767 14.2929 20.7071Q14.2232 20.6375 14.1685 20.5556Q14.1138 20.4737 14.0761 20.3827Q14.0384 20.2917 14.0192 20.1951Q14 20.0985 14 20ZM15 3H20Q20.0985 3 20.1951 3.0192Q20.2917 3.0384 20.3827 3.0761Q20.4737 3.1138 20.5556 3.1685Q20.6375 3.2232 20.7071 3.2929Q20.7767 3.3625 20.8315 3.4444Q20.8862 3.5263 20.9239 3.6173Q20.9616 3.7083 20.9808 3.8049Q21 3.9015 21 4Q21 4.1755 20.9403 4.3404Q20.8805 4.5054 20.7682 4.6402L17.135 9H20Q20.0985 9 20.1951 9.0192Q20.2917 9.0384 20.3827 9.0761Q20.4737 9.1138 20.5556 9.1685Q20.6375 9.2232 20.7071 9.2929Q20.7767 9.3625 20.8315 9.4444Q20.8862 9.5263 20.9239 9.6173Q20.9616 9.7083 20.9808 9.8049Q21 9.9015 21 10Q21 10.0985 20.9808 10.1951Q20.9616 10.2917 20.9239 10.3827Q20.8862 10.4737 20.8315 10.5556Q20.7767 10.6375 20.7071 10.7071Q20.6375 10.7767 20.5556 10.8315Q20.4737 10.8862 20.3827 10.9239Q20.2917 10.9616 20.1951 10.9808Q20.0985 11 20 11H15Q14.8245 11 14.6596 10.9403Q14.4946 10.8805 14.3598 10.7682Q14.2842 10.7052 14.2222 10.6286Q14.1603 10.552 14.1146 10.4648Q14.0688 10.3775 14.0409 10.2831Q14.013 10.1886 14.0041 10.0905Q13.9952 9.9924 14.0056 9.8945Q14.016 9.7966 14.0453 9.7025Q14.0746 9.6085 14.1216 9.522Q14.1687 9.4355 14.2318 9.3598L17.865 5H15Q14.9015 5 14.8049 4.9808Q14.7083 4.9616 14.6173 4.9239Q14.5263 4.8862 14.4444 4.8315Q14.3625 4.7768 14.2929 4.7071Q14.2232 4.6375 14.1685 4.5556Q14.1138 4.4737 14.0761 4.3827Q14.0384 4.2917 14.0192 4.1951Q14 4.0985 14 4Q14 3.9015 14.0192 3.8049Q14.0384 3.7083 14.0761 3.6173Q14.1138 3.5263 14.1685 3.4444Q14.2232 3.3625 14.2929 3.2929Q14.3625 3.2232 14.4444 3.1685Q14.5263 3.1138 14.6173 3.0761Q14.7083 3.0384 14.8049 3.0192Q14.9015 3 15 3ZM16 17H19V16.5Q19 15 17.5 15Q16 15 16 16.5V17Z"/>
</svg>
