<svg xmlns="http://www.w3.org/2000/svg" width="24" height="24" viewBox="0 0 24 24">
  <!-- Lucide 1.42.0; rounded 2 px strokes expanded for GTK 4.14+. See LICENSE. -->
  <path fill="#000000" d="M2 5 2 4.9985Q2.0019 1 12 1Q22 1 22 5V19Q22 23 12 23Q2 23 2 19ZM4 7.7777V12Q4 12.5219 5.9523 13.1726Q8.4344 14 12 14Q15.5656 14 18.0477 13.1726Q20 12.5219 20 12V7.7777Q17.5279 9 12 9Q6.4721 9 4 7.7777ZM4 14.7777V19Q4 19.5219 5.9523 20.1726Q8.4344 21 12 21Q15.5656 21 18.0477 20.1726Q20 19.5219 20 19V14.7777Q17.5279 16 12 16Q6.4721 16 4 14.7777ZM4 5Q4 5.5219 5.9523 6.1726Q8.4344 7 12 7Q15.5656 7 18.0477 6.1726Q20 5.5219 20 5Q20 4.4781 18.0477 3.8274Q15.5656 3 12 3Q8.4344 3 5.9523 3.8274Q4 4.4781 4 5Z"/>
</svg>
