<svg xmlns="http://www.w3.org/2000/svg" width="24" height="24" viewBox="0 0 24 24">
  <!-- Lucide 1.42.0; rounded 2 px strokes expanded for GTK 4.14+. See LICENSE. -->
  <path fill="#000000" d="M11.65 21H18Q19 21 19 20V9H15Q13 9 13 7V3L6 3Q5 3 5 4V14.35Q5 14.4485 4.9808 14.5451Q4.9616 14.6417 4.9239 14.7327Q4.8862 14.8237 4.8315 14.9056Q4.7768 14.9875 4.7071 15.0571Q4.6375 15.1267 4.5556 15.1815Q4.4737 15.2362 4.3827 15.2739Q4.2917 15.3116 4.1951 15.3308Q4.0985 15.35 4 15.35Q3.9015 15.35 3.8049 15.3308Q3.7083 15.3116 3.6173 15.2739Q3.5263 15.2362 3.4444 15.1815Q3.3625 15.1267 3.2929 15.0571Q3.2232 14.9875 3.1685 14.9056Q3.1138 14.8237 3.0761 14.7327Q3.0384 14.6417 3.0192 14.5451Q3 14.4485 3 14.35V4Q3 1 6 1L13.9975 1L14 1Q15.4152 0.9974 16.4131 1.9989L19.9998 5.5856Q21.0035 6.5856 21 8V20Q21 23 18 23H11.65Q11.5515 23 11.4549 22.9808Q11.3583 22.9616 11.2673 22.9239Q11.1763 22.8862 11.0944 22.8315Q11.0125 22.7767 10.9429 22.7071Q10.8732 22.6375 10.8185 22.5556Q10.7638 22.4737 10.7261 22.3827Q10.6884 22.2917 10.6692 22.1951Q10.65 22.0985 10.65 22Q10.65 21.9015 10.6692 21.8049Q10.6884 21.7083 10.7261 21.6173Q10.7638 21.5263 10.8185 21.4444Q10.8732 21.3625 10.9429 21.2929Q11.0125 21.2232 11.0944 21.1685Q11.1763 21.1138 11.2673 21.0761Q11.3583 21.0384 11.4549 21.0192Q11.5515 21 11.65 21ZM3 20Q3 17 6 17Q6.5505 17 7 17.101V13Q7 12.9015 7.0192 12.8049Q7.0384 12.7083 7.0761 12.6173Q7.1138 12.5263 7.1685 12.4444Q7.2232 12.3625 7.2929 12.2929Q7.3625 12.2232 7.4444 12.1685Q7.5263 12.1138 7.6173 12.0761Q7.7083 12.0384 7.8049 12.0192Q7.9015 12 8 12Q8.2324 12 8.441 12.1025L11.441 13.5765Q11.5294 13.6199 11.6076 13.6798Q11.6858 13.7396 11.7509 13.8136Q11.8159 13.8875 11.8653 13.9727Q11.9147 14.058 11.9465 14.1512Q11.9783 14.2444 11.9913 14.342Q12.0042 14.4397 11.998 14.5379Q11.9917 14.6362 11.9663 14.7314Q11.9409 14.8266 11.8975 14.915Q11.8541 15.0034 11.7942 15.0816Q11.7344 15.1598 11.6604 15.2249Q11.5865 15.2899 11.5013 15.3393Q11.416 15.3887 11.3228 15.4205Q11.2296 15.4523 11.132 15.4653Q11.0343 15.4783 10.9361 15.472Q10.8378 15.4657 10.7426 15.4403Q10.6474 15.4149 10.559 15.3715L9 14.6055V20Q9 23 6 23Q3 23 3 20ZM18.5858 7 15 3.4142V7ZM7 20Q7 19 6 19Q5 19 5 20Q5 21 6 21Q7 21 7 20Z"/>
</svg>
