<svg xmlns="http://www.w3.org/2000/svg" width="24" height="24" viewBox="0 0 24 24">
  <!-- Lucide 1.42.0; rounded 2 px strokes expanded for GTK 4.14+. See LICENSE. -->
  <path fill="#000000" d="M5 2H19Q22 2 22 5V19Q22 22 19 22H5Q2 22 2 19V5Q2 2 5 2ZM5 4Q4 4 4 5V19Q4 20 5 20H19Q20 20 20 19V5Q20 4 19 4ZM8 11H11V8Q11 7.9015 11.0192 7.8049Q11.0384 7.7083 11.0761 7.6173Q11.1138 7.5263 11.1685 7.4444Q11.2232 7.3625 11.2929 7.2929Q11.3625 7.2232 11.4444 7.1685Q11.5263 7.1138 11.6173 7.0761Q11.7083 7.0384 11.8049 7.0192Q11.9015 7 12 7Q12.0985 7 12.1951 7.0192Q12.2917 7.0384 12.3827 7.0761Q12.4737 7.1138 12.5556 7.1685Q12.6375 7.2232 12.7071 7.2929Q12.7767 7.3625 12.8315 7.4444Q12.8862 7.5263 12.9239 7.6173Q12.9616 7.7083 12.9808 7.8049Q13 7.9015 13 8V11H16Q16.0985 11 16.1951 11.0192Q16.2917 11.0384 16.3827 11.0761Q16.4737 11.1138 16.5556 11.1685Q16.6375 11.2232 16.7071 11.2929Q16.7767 11.3625 16.8315 11.4444Q16.8862 11.5263 16.9239 11.6173Q16.9616 11.7083 16.9808 11.8049Q17 11.9015 17 12Q17 12.0985 16.9808 12.1951Q16.9616 12.2917 16.9239 12.3827Q16.8862 12.4737 16.8315 12.5556Q16.7767 12.6375 16.7071 12.7071Q16.6375 12.7767 16.5556 12.8315Q16.4737 12.8862 16.3827 12.9239Q16.2917 12.9616 16.1951 12.9808Q16.0985 13 16 13H13V16Q13 16.0985 12.9808 16.1951Q12.9616 16.2917 12.9239 16.3827Q12.8862 16.4737 12.8315 16.5556Q12.7767 16.6375 12.7071 16.7071Q12.6375 16.7767 12.5556 16.8315Q12.4737 16.8862 12.3827 16.9239Q12.2917 16.9616 12.1951 16.9808Q12.0985 17 12 17Q11.9015 17 11.8049 16.9808Q11.7083 16.9616 11.6173 16.9239Q11.5263 16.8862 11.4444 16.8315Q11.3625 16.7767 11.2929 16.7071Q11.2232 16.6375 11.1685 16.5556Q11.1138 16.4737 11.0761 16.3827Q11.0384 16.2917 11.0192 16.1951Q11 16.0985 11 16V13H8Q7.9015 13 7.8049 12.9808Q7.7083 12.9616 7.6173 12.9239Q7.5263 12.8862 7.4444 12.8315Q7.3625 12.7767 7.2929 12.7071Q7.2232 12.6375 7.1685 12.5556Q7.1138 12.4737 7.0761 12.3827Q7.0384 12.2917 7.0192 12.1951Q7 12.0985 7 12Q7 11.9015 7.0192 11.8049Q7.0384 11.7083 7.0761 11.6173Q7.1138 11.5263 7.1685 11.4444Q7.2232 11.3625 7.2929 11.2929Q7.3625 11.2232 7.4444 11.1685Q7.5263 11.1138 7.6173 11.0761Q7.7083 11.0384 7.8049 11.0192Q7.9015 11 8 11Z"/>
</svg>
