<svg xmlns="http://www.w3.org/2000/svg" width="24" height="24" viewBox="0 0 24 24">
  <!-- Lucide 1.42.0; rounded 2 px strokes expanded for GTK 4.14+. See LICENSE. -->
  <path fill="#000000" d="M4.636 4.636Q7.2721 2 11 2Q14.7279 2 17.364 4.636Q20 7.2721 20 11Q20 14.2177 18.0362 16.6219L21.7071 20.2929Q21.7768 20.3625 21.8315 20.4444Q21.8862 20.5263 21.9239 20.6173Q21.9616 20.7083 21.9808 20.8049Q22 20.9015 22 21Q22 21.0985 21.9808 21.1951Q21.9616 21.2917 21.9239 21.3827Q21.8862 21.4737 21.8315 21.5556Q21.7768 21.6375 21.7071 21.7071Q21.6375 21.7768 21.5556 21.8315Q21.4737 21.8862 21.3827 21.9239Q21.2917 21.9616 21.1951 21.9808Q21.0985 22 21 22Q20.9015 22 20.8049 21.9808Q20.7083 21.9616 20.6173 21.9239Q20.5263 21.8862 20.4444 21.8315Q20.3625 21.7768 20.2929 21.7071L16.6219 18.0362Q14.2177 20 11 20Q7.2721 20 4.636 17.364Q2 14.7279 2 11L2 10.9985Q2.0005 7.2716 4.636 4.636ZM4 11.0013Q4.0005 13.9 6.0503 15.9497Q8.1005 18 11 18Q13.8337 18 15.8562 16.0418Q15.8962 15.9896 15.9429 15.9429Q15.9896 15.8962 16.0418 15.8562Q18 13.8337 18 11Q18 8.1005 15.9497 6.0503Q13.8995 4 11 4Q8.1005 4 6.0503 6.0503Q4 8.1005 4 11ZM8 10H14Q14.0985 10 14.1951 10.0192Q14.2917 10.0384 14.3827 10.0761Q14.4737 10.1138 14.5556 10.1685Q14.6375 10.2232 14.7071 10.2929Q14.7767 10.3625 14.8315 10.4444Q14.8862 10.5263 14.9239 10.6173Q14.9616 10.7083 14.9808 10.8049Q15 10.9015 15 11Q15 11.0985 14.9808 11.1951Q14.9616 11.2917 14.9239 11.3827Q14.8862 11.4737 14.8315 11.5556Q14.7767 11.6375 14.7071 11.7071Q14.6375 11.7767 14.5556 11.8315Q14.4737 11.8862 14.3827 11.9239Q14.2917 11.9616 14.1951 11.9808Q14.0985 12 14 12H8Q7.9015 12 7.8049 11.9808Q7.7083 11.9616 7.6173 11.9239Q7.5263 11.8862 7.4444 11.8315Q7.3625 11.7767 7.2929 11.7071Q7.2232 11.6375 7.1685 11.5556Q7.1138 11.4737 7.0761 11.3827Q7.0384 11.2917 7.0192 11.1951Q7 11.0985 7 11Q7 10.9015 7.0192 10.8049Q7.0384 10.7083 7.0761 10.6173Q7.1138 10.5263 7.1685 10.4444Q7.2232 10.3625 7.2929 10.2929Q7.3625 10.2232 7.4444 10.1685Q7.5263 10.1138 7.6173 10.0761Q7.7083 10.0384 7.8049 10.0192Q7.9015 10 8 10Z"/>
</svg>
